# xmcd
#
# Track frame offsets: 
#        150
#        2258
#        15836
#        35667
#        49844
#        62691
#        75355
#        84933
#        93405
#        110906
#        125455
#        146462
#        161451
#
# Disc length: 2293 seconds
#
# Revision: 1
# Processed by: cddbd v1.5.2PL0 Copyright (c) Steve Scherf et al.
# Submitted via: ExactAudioCopyFreeDBPlugin 1.0
#
DISCID=9008f30d
DTITLE=Various Artist - Saturday Night At The Uptown
DYEAR=1964
DGENRE=R&B
TTITLE0=Jimmy Bishop - Introduction by Jimmy Bishop
TTITLE1=The Drifters - Under The Boardwalk
TTITLE2=The Drifters - On Broadway
TTITLE3=The Drifters - There Goes My Baby
TTITLE4=Patty and The Emblems - Mixed Up, Shook Up, Girl
TTITLE5=The Vibrations - My Girl Sloopy
TTITLE6=The Vibrations - The Watusi
TTITLE7=Jimmy Bishop - Introduction by Jimmy Bishop
TTITLE8=Wilson Pickett - If You Need Me
TTITLE9=Wilson Pickett - I'm Gonna Cry
TTITLE10=Patti LaBelle and Her Bluebells - Down The Aisle
TTITLE11=The Carltons - Can't You Hear The Beat
TTITLE12=Barbara Lynn - (O Baby) We Got A Good Thing Goin'
EXTD=
EXTT0=
EXTT1=
EXTT2=
EXTT3=
EXTT4=
EXTT5=
EXTT6=
EXTT7=
EXTT8=
EXTT9=
EXTT10=
EXTT11=
EXTT12=
PLAYORDER=
